<?xml version="1.0" encoding="iso-8859-1"?>
<!-- Generator: Adobe Illustrator 16.0.0, SVG Export Plug-In . SVG Version: 6.00 Build 0)  -->
<!DOCTYPE svg PUBLIC "-//W3C//DTD SVG 1.1//EN" "http://www.w3.org/Graphics/SVG/1.1/DTD/svg11.dtd">
<svg version="1.1" id="Capa_1" xmlns="http://www.w3.org/2000/svg" xmlns:xlink="http://www.w3.org/1999/xlink" x="0px" y="0px"
	 width="512px" height="512px" viewBox="0 0 512 512" style="enable-background:new 0 0 512 512;" xml:space="preserve">
<g>
	<path d="M320,64H192V32h128V64z M512,96v352c0,35.344-28.656,64-64,64H64c-35.344,0-64-28.656-64-64V96c0-35.344,28.656-64,64-64
		v32c-17.641,0-32,14.375-32,32v64h448V96c0-17.625-14.344-32-32-32V32C483.344,32,512,60.656,512,96z M128,400H32v48
		c0,17.656,14.359,32,32,32h64V400z M128,304H32v64h96V304z M128,192H32v80h96V192z M240,400h-80v80h80V400z M240,304h-80v64h80V304
		z M240,192h-80v80h80V192z M352,400h-80v80h80V400z M352,304h-80v64h80V304z M352,192h-80v80h80V192z M480,400h-96v80h64
		c17.656,0,32-14.344,32-32V400z M480,304h-96v64h96V304z M480,192h-96v80h96V192z M112,96h32c8.844,0,16-7.156,16-16V16
		c0-8.844-7.156-16-16-16h-32c-8.844,0-16,7.156-16,16v64C96,88.844,103.156,96,112,96z M368,96h32c8.844,0,16-7.156,16-16V16
		c0-8.844-7.156-16-16-16h-32c-8.844,0-16,7.156-16,16v64C352,88.844,359.156,96,368,96z"/>
</g>
<g>
</g>
<g>
</g>
<g>
</g>
<g>
</g>
<g>
</g>
<g>
</g>
<g>
</g>
<g>
</g>
<g>
</g>
<g>
</g>
<g>
</g>
<g>
</g>
<g>
</g>
<g>
</g>
<g>
</g>
</svg>
