<?xml version="1.0"?>

<!DOCTYPE svg PUBLIC '-//W3C//DTD SVG 1.0//EN' 'http://www.w3.org/TR/2001/REC-SVG-20010904/DTD/svg10.dtd'>
<svg fill-opacity="1" xmlns:xlink="http://www.w3.org/1999/xlink" color-rendering="auto" color-interpolation="auto" text-rendering="auto" stroke="black" stroke-linecap="square" stroke-miterlimit="10" shape-rendering="auto" stroke-opacity="1" fill="black" stroke-dasharray="none" font-weight="normal" stroke-width="1" xmlns="http://www.w3.org/2000/svg" font-family="&apos;Dialog&apos;" font-style="normal" stroke-linejoin="miter" font-size="12" stroke-dashoffset="0" image-rendering="auto">
  <!--Unicode Character 'MUSICAL SYMBOL MEZZO' (U+1D190)-->
  <defs id="genericDefs" />
  <g>
    <g>
      <path d="M104.9062 358.1719 Q104.9062 358.5938 104.625 359.1562 Q96.0469 377.2969 84.2344 377.2969 Q79.3125 377.2969 75.7969 374.625 Q71.7188 371.5312 71.7188 366.8906 Q71.7188 363.2344 77.5547 350.6484 Q83.3906 338.0625 83.3906 331.5938 Q83.3906 328.6406 81.5625 328.6406 Q77.2031 328.6406 72.2812 333.7031 Q67.7812 338.2031 66.2344 342.8438 L56.8125 370.5469 Q54.5625 377.2969 47.5312 377.2969 Q41.3438 377.2969 41.3438 371.3906 Q41.3438 369.8438 41.625 369 L51.0469 341.2969 Q52.875 335.9531 52.875 332.1562 Q52.875 328.6406 50.2031 328.6406 Q46.4062 328.6406 43.1719 331.4531 Q38.6719 335.25 35.5781 341.1562 Q35.4375 341.4375 33.1875 348.75 Q30.9375 356.0625 25.7344 370.6875 Q22.9219 377.2969 16.3125 377.2969 Q10.125 377.2969 10.125 371.25 Q10.125 370.2656 10.5469 369 L21.5156 336.0938 Q22.7812 332.2969 22.7812 329.4844 Q22.7812 328.6406 22.2188 328.6406 Q19.6875 328.6406 17.7891 336.2344 Q15.8906 343.8281 12.375 343.8281 Q7.5938 343.8281 7.5938 340.875 Q7.5938 335.8125 13.3594 328.7812 Q19.125 321.75 24.0469 321.75 Q34.4531 321.75 36.9844 329.0625 Q44.1562 321.75 51.1875 321.75 Q64.9688 321.75 67.3594 329.9062 Q75.2344 321.75 83.3906 321.75 Q98.2969 321.75 98.2969 333.7031 Q98.2969 340.5938 92.1797 353.8828 Q86.0625 367.1719 86.0625 370.4062 Q91.2656 370.4062 95.7656 358.875 Q97.1719 355.2188 101.25 355.2188 Q104.9062 355.2188 104.9062 358.1719 Z" stroke="none" />
    </g>
  </g>
</svg>
