<svg height="682pt" viewBox="-107 -21 682 682.66669" width="682pt" xmlns="http://www.w3.org/2000/svg"><path d="m254.042969 56.25h-18.75v-18.75h18.75zm-31.25 0h-18.75v-18.75h18.75zm0 0"/><path d="m328.503906 40.625v94.289062h94.289063v-18.75h-75.539063v-75.539062zm0 0"/><path d="m341.765625 0h-347.097656v640h468.75v-518.351562zm102.902344 621.25h-431.25v-602.5h320.578125l110.671875 110.667969zm0 0"/><path d="m236.722656 221.992188h136.367188v179.96875h18.75v-198.71875h-155.117188zm0 0"/><path d="m373.089844 452.378906c0 31.429688-25.566406 56.996094-56.996094 56.996094-31.433594 0-57.003906-25.570312-57.003906-56.996094 0-34.160156 30.15625-61.191406 64.816406-56.457031l10.644531 1.460937v-102.011718h-148.0625v157.007812c0 31.429688-25.566406 56.996094-56.996093 56.996094-31.433594 0-57.003907-25.570312-57.003907-56.996094 0-34.167968 30.15625-61.191406 64.816407-56.457031l10.644531 1.460937v-175.390624h63.773437v-18.75h-82.523437v173.382812c-41.636719.164062-75.457031 34.078125-75.457031 75.753906 0 41.765625 33.980468 75.746094 75.75 75.746094 41.765624 0 75.75-33.980469 75.75-75.746094v-138.257812h110.558593v62.503906c-41.636719.164062-75.457031 34.078125-75.457031 75.753906 0 41.765625 33.980469 75.746094 75.753906 75.746094 41.765625 0 75.746094-33.980469 75.746094-75.746094v-25.417968h-18.75v25.417968zm0 0"/></svg>