<svg height="512pt" viewBox="0 0 512 512.00001" width="512pt" xmlns="http://www.w3.org/2000/svg"><path d="m495.457031 411.8125h-.097656v-110.34375c0-4.152344-3.371094-7.523438-7.523437-7.523438-4.152344 0-7.523438 3.371094-7.523438 7.523438v110.34375c-31.367188 0-58.195312 0-106.828125 0v-157.726562h106.828125v17.292968c0 4.160156 3.371094 7.523438 7.523438 7.523438 4.152343 0 7.523437-3.363282 7.523437-7.523438v-24.816406c0-4.164062-3.371094-7.523438-7.523437-7.523438h-19.773438c0-7.300781-.042969-200.597656-.046875-231.515624 0-4.152344-3.371094-7.523438-7.523437-7.523438h-409.292969c-4.152344 0-7.523438 3.371094-7.523438 7.523438v231.515624h-20.773437c-4.15625 0-7.523438 3.359376-7.523438 7.523438v115.09375c0 4.164062 3.367188 7.523438 7.523438 7.523438 4.152344 0 7.523437-3.359376 7.523437-7.523438v-107.570312h106.828125v157.726562c-66.089844 0-41.515625 0-106.828125 0v-20.0625c0-4.152344-3.371093-7.523438-7.523437-7.523438-4.15625 0-7.523438 3.371094-7.523438 7.523438v20.105469c-8.558594.476562-15.378906 7.574219-15.378906 16.234375v21.277344c0 8.976562 7.300781 16.28125 16.28125 16.28125h3.109375v38.828124c0 4.152344 3.371094 7.523438 7.523437 7.523438h457.910157c4.15625 0 7.523437-3.371094 7.523437-7.523438v-38.828124h3.109375c8.980469 0 16.28125-7.304688 16.28125-16.28125v-21.277344c0-8.964844-7.300781-16.277344-16.28125-16.277344zm-94-172.773438v-21.757812l33.496094 21.757812zm51.5625-6.210937-45.089843-29.300781-.003907-.003906 45.09375-29.507813zm-51.5625-43.054687v-58.722657l44.867188 29.359375zm51.5625-42.964844-45.101562-29.511719 45.101562-29.304687zm-51.5625-43.257813v-21.898437h33.703125zm51.511719-36.945312h-25.460938l25.460938-37.082031zm-8.3125-51.558594-30.8125 44.875-31.382812-44.875zm-44.496094 51.558594c-4.414062 0-52.328125 0-64.25 0l32.238282-45.773438zm-36.519531 88.273437c5.398437 14.425782-3.90625 24.78125-5.164063 28.375l-54.316406-28.9375 3.738282-7.023437c6.664062-12.496094 22.25-17.578125 35.242187-10.742188 8.175781 4.414063 16.351563 7.226563 20.5 18.328125zm-16.320313-32.992187 2.53125-4.746094c3.757813-7.089844 14.914063-4.683594 14.914063 3.773437 0 3.003907-1.464844 4.324219-3.449219 8.425782-1.527344-.992188-11.101562-6.210938-13.996094-7.453125zm6.5-106.839844-30.914062 43.890625-30.914062-43.890625zm-43.917968 51.558594h-64.25l32.011718-45.773438zm-46.550782-51.558594-30.96875 44.285156-30.96875-44.285156zm-44.242187 51.558594h-63.976563l31.988282-45.742188zm-68.683594 62.734375c-2.003906-4.132813-3.453125-5.433594-3.453125-8.425782 0-8.359374 11.109375-10.953124 14.917969-3.773437l2.527344 4.746094c-1.644531.703125-11.402344 5.765625-13.992188 7.453125zm36.480469 4.875c14.925781 3.546875 18.378906 16.976562 20.675781 20.101562l-54.320312 28.9375-3.742188-7.019531c-6.726562-12.632813-2.070312-28.359375 10.746094-35.238281 4.882813-1.921875 13.519531-9.996094 26.640625-6.78125zm-14.078125-119.167969-30.96875 44.289063-30.972656-44.289063zm-44.246094 51.558594c-12.449219 0-40.878906 0-63.027343 0l31.113281-45.636719zm-69.859375-51.558594h23.773438l-23.773438 34.871094zm0 72.945313 45.140625 29.332031-45.140625 29.796875zm0 85.707031 45.136719 29.800781-45.136719 29.328125zm51.558594 65.339843h-33.496094l33.496094-21.757812zm0-49.332031-44.378906-29.296875 44.378906-29.292968zm0-86.15625-33.703125-21.898437h33.703125zm367.023438 393.402344h-442.867188v-31.304687h442.867188zm19.386718-47.585937c0 1.910156-2.765625 1.03125-4.34375 1.234374-197.933594 0-278.132812 0-476.066406 0-.683594 0-1.234375-.554687-1.234375-1.234374v-21.277344c0-.671875.550781-1.234375 1.234375-1.234375 36.003906.003906 256.546875 0 284.515625 0 4.164063 0 7.523437-3.359375 7.523437-7.519531 0-4.15625-3.359374-7.523438-7.523437-7.523438h-148.496094v-165.25c0-4.164062-3.371093-7.523438-7.523437-7.523438h-19.449219v-157.386718h18.945313v18.835937c-.058594.03125-.128907.070313-.1875.101563-7.503907 4.003906-12.160157 11.785156-12.160157 20.324218 0 8.351563 4.230469 12.839844 7.164063 19.148438-4.914063 6.851562-7.683594 15.175781-7.683594 23.953125 0 14.097656 6.925781 22.246094 9.539062 28.105469 3.425782 6.460937 11.398438 8.683594 17.59375 5.367187l57.910157-30.855469c4.25-2.265624 6.898437-6.667968 6.898437-11.484374 0-5.050782-2.59375-7.464844-6.226562-14.9375-7.1875-13.476563-21.371094-22.160157-37.476563-21.746094-2.902343-4.011719-5.820312-17.285156-20.324219-20.121094v-16.691406h193.097657v16.691406c-6.722657 1.3125-12.558594 5.558594-15.847657 11.726562l-4.476562 8.394532c-16.078125-.410156-30.277344 8.25-37.472656 21.746094-3.621094 7.441406-6.230469 9.878906-6.230469 14.9375 0 4.816406 2.648437 9.21875 6.902344 11.484374 60.265625 31.527344 58.253906 32.382813 64.015625 32.382813 4.824218 0 9.230468-2.640625 11.484375-6.894531 2.570312-5.765625 9.539062-14.023438 9.539062-28.105469 0-8.777344-2.765625-17.101563-7.683593-23.953125 2.847656-6.128906 7.164062-10.753906 7.164062-19.148438 0-8.539062-4.65625-16.320312-12.15625-20.324218-.0625-.03125-.132812-.070313-.191406-.101563v-18.835937h18.949218v157.386718h-20.453124c-4.15625 0-7.523438 3.359376-7.523438 7.523438v165.25h-27.546875c-4.152344 0-7.523437 3.367188-7.523437 7.523438 0 4.160156 3.371093 7.519531 7.523437 7.519531h164.566406c.683594 0 1.234375.5625 1.234375 1.234375zm0 0"/><path d="m83.839844 329.4375c18.117187 0 32.851562-14.738281 32.851562-32.851562 0-18.117188-14.734375-32.851563-32.851562-32.851563-18.113282 0-32.851563 14.734375-32.851563 32.851563 0 18.113281 14.738281 32.851562 32.851563 32.851562zm0-50.65625c9.820312 0 17.804687 7.984375 17.804687 17.804688 0 9.816406-7.984375 17.804687-17.804687 17.804687-9.816406 0-17.804688-7.988281-17.804688-17.804687 0-9.820313 7.988282-17.804688 17.804688-17.804688zm0 0"/><path d="m83.839844 402.328125c18.117187 0 32.851562-14.738281 32.851562-32.851563 0-18.117187-14.734375-32.851562-32.851562-32.851562-18.113282 0-32.851563 14.734375-32.851563 32.851562 0 18.113282 14.738281 32.851563 32.851563 32.851563zm0-50.65625c9.820312 0 17.804687 7.984375 17.804687 17.804687 0 9.816407-7.984375 17.804688-17.804687 17.804688-9.816406 0-17.804688-7.988281-17.804688-17.804688 0-9.820312 7.988282-17.804687 17.804688-17.804687zm0 0"/><path d="m426.898438 263.734375c-18.113282 0-32.851563 14.734375-32.851563 32.851563 0 18.113281 14.738281 32.851562 32.851563 32.851562 18.117187 0 32.851562-14.738281 32.851562-32.851562 0-18.117188-14.734375-32.851563-32.851562-32.851563zm0 50.65625c-9.816407 0-17.804688-7.988281-17.804688-17.804687 0-9.820313 7.988281-17.804688 17.804688-17.804688 9.820312 0 17.804687 7.984375 17.804687 17.804688 0 9.816406-7.984375 17.804687-17.804687 17.804687zm0 0"/><path d="m426.898438 336.625c-18.113282 0-32.851563 14.734375-32.851563 32.851562 0 18.113282 14.738281 32.851563 32.851563 32.851563 18.117187 0 32.851562-14.738281 32.851562-32.851563 0-18.117187-14.734375-32.851562-32.851562-32.851562zm0 50.65625c-9.816407 0-17.804688-7.988281-17.804688-17.804688 0-9.820312 7.988281-17.804687 17.804688-17.804687 9.820312 0 17.804687 7.984375 17.804687 17.804687 0 9.816407-7.984375 17.804688-17.804687 17.804688zm0 0"/></svg>